<svg width="24" height="24" viewBox="0 0 24 24" xmlns="http://www.w3.org/2000/svg">
  <g fill-rule="nonzero" fill="none">
    <circle cx="12" cy="12" r="12" fill="#000"/>
    <path d="M12 13.796c1.338 0 2.429 1.168 2.429 2.602S13.338 19 12 19c-1.338 0-2.429-1.168-2.429-2.602s1.091-2.602 2.429-2.602zm0 1.473c-.577 0-1.054.51-1.054 1.129s.477 1.13 1.054 1.13c.577 0 1.054-.511 1.054-1.13 0-.619-.477-1.13-1.054-1.13zM12 4c1.651 0 3 1.539 3 3.443 0 1.095-.431 2.318-1.275 3.63-.606.937-1.211 1.578-1.239 1.598l-.504.513-.477-.523c-.028-.03-.624-.69-1.23-1.628C9.431 9.711 9 8.508 9 7.443 9 5.549 10.349 4 12 4zm-.01 1.48c-.89 0-1.623.878-1.623 1.963 0 1.203.936 2.702 1.624 3.6.688-.868 1.615-2.338 1.615-3.6 0-1.085-.725-1.963-1.615-1.963z" fill="#FFF"/>
  </g>
</svg>
