<svg xmlns="http://www.w3.org/2000/svg" xmlns:xlink="http://www.w3.org/1999/xlink" width="17" height="17" viewBox="0 0 17 17">
  <defs>
    <path id="create-a" d="M14,9 C14,8.44771525 14.4477153,8 15,8 C15.5522847,8 16,8.44771525 16,9 L16,14.7180574 C16,15.2754304 15.935364,15.610143 15.7482468,15.9600217 C15.5678935,16.2972531 15.2972531,16.5678935 14.9600217,16.7482468 C14.610143,16.935364 14.2754304,17 13.7180574,17 L2.2819426,17 C1.72456958,17 1.38985697,16.935364 1.03997829,16.7482468 C0.702746853,16.5678935 0.4321065,16.2972531 0.251753154,15.9600217 C0.0646359856,15.610143 0,15.2754304 0,14.7180574 L0,3.2819426 C0,2.72456958 0.0646359856,2.38985697 0.251753154,2.03997829 C0.4321065,1.70274685 0.702746853,1.4321065 1.03997829,1.25175315 C1.38985697,1.06463599 1.72456958,1 2.2819426,1 L8,1 C8.55228475,1 9,1.44771525 9,2 C9,2.55228475 8.55228475,3 8,3 L2.5,3 C2.22385763,3 2,3.22385763 2,3.5 L2,14.5 C2,14.7761424 2.22385763,15 2.5,15 L13.5,15 C13.7761424,15 14,14.7761424 14,14.5 L14,9 Z M6.19624587,10.1985727 C6.8092686,7.71286187 7.17481771,6.41096872 7.29289322,6.29289322 L12.2928932,1.29289322 C13.2357023,0.350084177 14.7642977,0.350084177 15.7071068,1.29289322 C16.6499158,2.23570226 16.6499158,3.76429774 15.7071068,4.70710678 L10.7071068,9.70710678 C10.5890314,9.82518218 9.28714036,10.1907308 6.80143373,10.8037526 L6.80143633,10.8037631 C6.5333211,10.8698853 6.26236811,10.7061377 6.19624588,10.4380224 C6.17685215,10.3593839 6.17685214,10.2772112 6.19624587,10.1985727 Z M14.2928932,3.29289322 C14.4546537,3.13113276 14.4546537,2.86886724 14.2928932,2.70710678 C14.1311328,2.54534632 13.8688672,2.54534632 13.7071068,2.70710678 L9.59099026,6.8232233 C9.49335918,6.92085438 9.49335918,7.07914562 9.59099026,7.1767767 L9.8232233,7.40900974 C9.92085438,7.50664082 10.0791456,7.50664082 10.1767767,7.40900974 L14.2928932,3.29289322 Z"/>
  </defs>
  <use fill="#C3AA7D" xlink:href="#create-a"/>
</svg>
