<?xml version="1.0" encoding="UTF-8"?>
<svg width="33px" height="33px" viewBox="0 0 33 33" version="1.1" xmlns="http://www.w3.org/2000/svg" xmlns:xlink="http://www.w3.org/1999/xlink">
    <!-- Generator: Sketch 64 (93537) - https://sketch.com -->
    <title>shoutout-icon-upload</title>
    <desc>Created with Sketch.</desc>
    <defs>
        <path d="M9,5.41421356 L6.70710678,7.70710678 C6.31658249,8.09763107 5.68341751,8.09763107 5.29289322,7.70710678 C4.90236893,7.31658249 4.90236893,6.68341751 5.29289322,6.29289322 L9.29289322,2.29289322 C9.68341751,1.90236893 10.3165825,1.90236893 10.7071068,2.29289322 L14.7071068,6.29289322 C15.0976311,6.68341751 15.0976311,7.31658249 14.7071068,7.70710678 C14.3165825,8.09763107 13.6834175,8.09763107 13.2928932,7.70710678 L11,5.41421356 L11,12 C11,12.5522847 10.5522847,13 10,13 C9.44771525,13 9,12.5522847 9,12 L9,5.41421356 Z M5.5,15 L14.5,15 C14.7761424,15 15,14.7761424 15,14.5 L15,14 C15,13.4477153 15.4477153,13 16,13 C16.5522847,13 17,13.4477153 17,14 L17,15 C17,16 16,17 15,17 L5,17 C4,17 3,16 3,15 L3,14 C3,13.4477153 3.44771525,13 4,13 C4.55228475,13 5,13.4477153 5,14 L5,14.5 C5,14.7761424 5.22385763,15 5.5,15 Z" id="path-1"></path>
    </defs>
    <g id="Userbereich" stroke="none" stroke-width="1" fill="none" fill-rule="evenodd">
        <g id="LY-Unternehmen-Bearbeiten" transform="translate(-164.000000, -1406.000000)">
            <g id="shoutout-icon-upload" transform="translate(164.000000, 1406.000000)">
                <circle id="Oval" fill="#000000" fill-rule="nonzero" cx="16.5" cy="16.5" r="16.5"></circle>
                <g id="Icons-/-2-Secondary-/-Upload" transform="translate(6.500000, 6.500000)">
                    <mask id="mask-2" fill="white">
                        <use xlink:href="#path-1"></use>
                    </mask>
                    <use id="fill" fill="#FFFFFF" fill-rule="evenodd" xlink:href="#path-1"></use>
                </g>
            </g>
        </g>
    </g>
</svg>